<?xml version="1.0" encoding="UTF-8" standalone="no"?>
<!-- Created with Inkscape (http://www.inkscape.org/) -->

<svg
   xmlns:dc="http://purl.org/dc/elements/1.1/"
   xmlns:cc="http://creativecommons.org/ns#"
   xmlns:rdf="http://www.w3.org/1999/02/22-rdf-syntax-ns#"
   xmlns:svg="http://www.w3.org/2000/svg"
   xmlns="http://www.w3.org/2000/svg"
   xmlns:sodipodi="http://sodipodi.sourceforge.net/DTD/sodipodi-0.dtd"
   xmlns:inkscape="http://www.inkscape.org/namespaces/inkscape"
   width="641.32758"
   height="987.04181"
   id="svg2"
   version="1.1"
   inkscape:version="0.91 r13725"
   sodipodi:docname="traitement.svg">
  <defs
     id="defs4">
    <marker
       inkscape:stockid="Arrow1Lend"
       orient="auto"
       refY="0"
       refX="0"
       id="Arrow1Lend"
       style="overflow:visible">
      <path
         id="path3985"
         d="M 0,0 5,-5 -12.5,0 5,5 0,0 z"
         style="fill-rule:evenodd;stroke:#000000;stroke-width:1pt"
         transform="matrix(-0.8,0,0,-0.8,-10,0)"
         inkscape:connector-curvature="0" />
    </marker>
    <marker
       inkscape:stockid="Arrow1Send"
       orient="auto"
       refY="0"
       refX="0"
       id="Arrow1Send"
       style="overflow:visible">
      <path
         id="path3997"
         d="M 0,0 5,-5 -12.5,0 5,5 0,0 z"
         style="fill-rule:evenodd;stroke:#000000;stroke-width:1pt"
         transform="matrix(-0.2,0,0,-0.2,-1.2,0)"
         inkscape:connector-curvature="0" />
    </marker>
    <marker
       inkscape:stockid="Arrow1Mend"
       orient="auto"
       refY="0"
       refX="0"
       id="Arrow1Mend"
       style="overflow:visible">
      <path
         id="path3991"
         d="M 0,0 5,-5 -12.5,0 5,5 0,0 z"
         style="fill-rule:evenodd;stroke:#000000;stroke-width:1pt"
         transform="matrix(-0.4,0,0,-0.4,-4,0)"
         inkscape:connector-curvature="0" />
    </marker>
    <marker
       inkscape:stockid="Arrow1Lend"
       orient="auto"
       refY="0"
       refX="0"
       id="Arrow1Lend-5"
       style="overflow:visible">
      <path
         inkscape:connector-curvature="0"
         id="path3985-1"
         d="M 0,0 5,-5 -12.5,0 5,5 0,0 z"
         style="fill-rule:evenodd;stroke:#000000;stroke-width:1pt"
         transform="matrix(-0.8,0,0,-0.8,-10,0)" />
    </marker>
    <marker
       inkscape:stockid="Arrow1Lend"
       orient="auto"
       refY="0"
       refX="0"
       id="Arrow1Lend-5-1"
       style="overflow:visible">
      <path
         inkscape:connector-curvature="0"
         id="path3985-1-5"
         d="M 0,0 5,-5 -12.5,0 5,5 0,0 z"
         style="fill-rule:evenodd;stroke:#000000;stroke-width:1pt"
         transform="matrix(-0.8,0,0,-0.8,-10,0)" />
    </marker>
    <marker
       inkscape:stockid="Arrow1Lend"
       orient="auto"
       refY="0"
       refX="0"
       id="Arrow1Lend-4"
       style="overflow:visible">
      <path
         id="path3985-2"
         d="M 0,0 5,-5 -12.5,0 5,5 0,0 z"
         style="fill-rule:evenodd;stroke:#000000;stroke-width:1pt"
         transform="matrix(-0.8,0,0,-0.8,-10,0)"
         inkscape:connector-curvature="0" />
    </marker>
  </defs>
  <sodipodi:namedview
     id="base"
     pagecolor="#ffffff"
     bordercolor="#666666"
     borderopacity="1.0"
     inkscape:pageopacity="0.0"
     inkscape:pageshadow="2"
     inkscape:zoom="0.7"
     inkscape:cx="65.78696"
     inkscape:cy="449.85483"
     inkscape:document-units="px"
     inkscape:current-layer="layer1"
     showgrid="false"
     inkscape:window-width="1920"
     inkscape:window-height="1056"
     inkscape:window-x="4480"
     inkscape:window-y="24"
     inkscape:window-maximized="1"
     fit-margin-top="0"
     fit-margin-left="0"
     fit-margin-right="0"
     fit-margin-bottom="0" />
  <metadata
     id="metadata7">
    <rdf:RDF>
      <cc:Work
         rdf:about="">
        <dc:format>image/svg+xml</dc:format>
        <dc:type
           rdf:resource="http://purl.org/dc/dcmitype/StillImage" />
        <dc:title />
      </cc:Work>
    </rdf:RDF>
  </metadata>
  <g
     inkscape:label="Calque 1"
     inkscape:groupmode="layer"
     id="layer1"
     transform="translate(-40.764825,-26.841289)">
    <path
       sodipodi:type="arc"
       style="fill:none;stroke:#000000;stroke-width:4.18464565;stroke-linejoin:miter;stroke-miterlimit:4;stroke-opacity:1;stroke-dasharray:none;stroke-dashoffset:0"
       id="path2994"
       sodipodi:cx="362.85715"
       sodipodi:cy="439.50504"
       sodipodi:rx="202.85715"
       sodipodi:ry="198.57143"
       d="M 565.71429,439.50504 A 202.85715,198.57143 0 0 1 362.85715,638.07646 202.85715,198.57143 0 0 1 160,439.50504 202.85715,198.57143 0 0 1 362.85715,240.93361 202.85715,198.57143 0 0 1 565.71429,439.50504 Z"
       transform="matrix(1.5623461,0,0,2.1628852,-205.47985,-369.93374)" />
    <path
       sodipodi:type="spiral"
       style="fill:none;stroke:#000000;stroke-width:1px;stroke-linecap:butt;stroke-linejoin:miter;stroke-opacity:1"
       id="path2996"
       sodipodi:cx="114.28571"
       sodipodi:cy="238.07646"
       sodipodi:expansion="1"
       sodipodi:revolution="3"
       sodipodi:radius="71.485695"
       sodipodi:argument="-17.318739"
       sodipodi:t0="0"
       d="m 114.28571,238.07646 c 0.14326,3.58132 -4.75686,1.96 -5.95238,0.2381 -3.23977,-4.66624 0.92314,-10.49042 5.47618,-12.14286 8.14434,-2.95584 16.34946,3.39112 18.33335,11.19046 2.91144,11.44585 -5.86708,22.31153 -16.90475,24.52383 -14.71148,2.94864 -28.31326,-8.34251 -30.714302,-22.61903 -3.021467,-17.96555 10.816875,-34.33466 28.333312,-36.90478 21.21475,-3.11277 40.36727,13.29048 43.09526,34.04759 3.21484,24.46153 -15.76359,46.40691 -39.76187,49.28574 -27.706977,3.32373 -52.451236,-18.23636 -55.476227,-45.47616 -3.437186,-30.95159 20.708902,-58.49884 51.190437,-61.6667 34.19568,-3.55386 64.54884,23.18129 67.85719,56.90472 3.67289,37.43941 -25.65356,70.60063 -62.61901,74.04766"
       transform="matrix(1,0,0,1.0628874,0,-55.022764)" />
    <path
       transform="matrix(-1,0,0,1.0628874,728.8018,-52.070216)"
       sodipodi:type="spiral"
       style="fill:none;stroke:#000000;stroke-width:1px;stroke-linecap:butt;stroke-linejoin:miter;stroke-opacity:1"
       id="path2996-1"
       sodipodi:cx="114.28571"
       sodipodi:cy="238.07646"
       sodipodi:expansion="1"
       sodipodi:revolution="3"
       sodipodi:radius="71.485695"
       sodipodi:argument="-17.318739"
       sodipodi:t0="0"
       d="m 114.28571,238.07646 c 0.14326,3.58132 -4.75686,1.96 -5.95238,0.2381 -3.23977,-4.66624 0.92314,-10.49042 5.47618,-12.14286 8.14434,-2.95584 16.34946,3.39112 18.33335,11.19046 2.91144,11.44585 -5.86708,22.31153 -16.90475,24.52383 -14.71148,2.94864 -28.31326,-8.34251 -30.714302,-22.61903 -3.021467,-17.96555 10.816875,-34.33466 28.333312,-36.90478 21.21475,-3.11277 40.36727,13.29048 43.09526,34.04759 3.21484,24.46153 -15.76359,46.40691 -39.76187,49.28574 -27.706977,3.32373 -52.451236,-18.23636 -55.476227,-45.47616 -3.437186,-30.95159 20.708902,-58.49884 51.190437,-61.6667 34.19568,-3.55386 64.54884,23.18129 67.85719,56.90472 3.67289,37.43941 -25.65356,70.60063 -62.61901,74.04766" />
    <path
       sodipodi:type="arc"
       style="fill:none;stroke:#000000;stroke-width:4.18464565;stroke-linejoin:miter;stroke-miterlimit:4;stroke-opacity:1;stroke-dasharray:none;stroke-dashoffset:0"
       id="path3020"
       sodipodi:cx="201.42857"
       sodipodi:cy="435.21933"
       sodipodi:rx="47.142857"
       sodipodi:ry="25.714285"
       d="m 248.57143,435.21933 a 47.142857,25.714285 0 0 1 -47.14286,25.71428 47.142857,25.714285 0 0 1 -47.14285,-25.71428 47.142857,25.714285 0 0 1 47.14285,-25.71429 47.142857,25.714285 0 0 1 47.14286,25.71429 z"
       transform="matrix(1.0049179,0,0,0.8362734,341.86654,52.714501)" />
    <path
       sodipodi:type="arc"
       style="fill:none;stroke:#000000;stroke-width:4.18464565;stroke-linejoin:miter;stroke-miterlimit:4;stroke-opacity:1;stroke-dasharray:none;stroke-dashoffset:0"
       id="path3022"
       sodipodi:cx="490"
       sodipodi:cy="443.79074"
       sodipodi:rx="44.285713"
       sodipodi:ry="20"
       d="m 534.28571,443.79074 a 44.285713,20 0 0 1 -44.28571,20 44.285713,20 0 0 1 -44.28571,-20 44.285713,20 0 0 1 44.28571,-20 44.285713,20 0 0 1 44.28571,20 z"
       transform="matrix(1,0,0,1.0628874,-317.14285,-61.096406)" />
    <path
       sodipodi:type="arc"
       style="fill:none;stroke:#000000;stroke-width:4.18464565;stroke-linejoin:miter;stroke-miterlimit:4;stroke-opacity:1;stroke-dasharray:none;stroke-dashoffset:0"
       id="path3024"
       sodipodi:cx="377.14285"
       sodipodi:cy="73.790756"
       sodipodi:rx="91.428574"
       sodipodi:ry="38.57143"
       d="m 468.57143,73.790756 a 91.428574,38.57143 0 0 1 -91.42858,38.571434 91.428574,38.57143 0 0 1 -91.42857,-38.571434 91.428574,38.57143 0 0 1 91.42857,-38.57143 91.428574,38.57143 0 0 1 91.42858,38.57143 z"
       transform="translate(-11.081942,-6.285714)" />
    <rect
       style="fill:none;stroke:#000000;stroke-width:4.64151287;stroke-linejoin:miter;stroke-miterlimit:4;stroke-opacity:1;stroke-dasharray:none;stroke-dashoffset:0"
       id="rect3026"
       width="149.6754"
       height="57.369526"
       x="183.01944"
       y="251.07895" />
    <rect
       style="fill:none;stroke:#000000;stroke-width:8.43171215;stroke-linejoin:miter;stroke-miterlimit:4;stroke-opacity:1;stroke-dasharray:none;stroke-dashoffset:0"
       id="rect3026-4"
       width="241.72046"
       height="117.22787"
       x="239.71121"
       y="347.43405" />
    <rect
       style="fill:none;stroke:#000000;stroke-width:8.43171215;stroke-linejoin:miter;stroke-miterlimit:4;stroke-opacity:1;stroke-dasharray:none;stroke-dashoffset:0"
       id="rect3026-4-0"
       width="241.72046"
       height="117.22787"
       x="390.56833"
       y="519.0144" />
    <ellipse
       style="fill:none;stroke:#000000;stroke-width:4.6;stroke-linejoin:miter;stroke-miterlimit:4;stroke-dasharray:none;stroke-dashoffset:0;stroke-opacity:1"
       id="path3024-9"
       cx="457.14285"
       cy="738.58429"
       rx="105.25298"
       ry="52.673756" />
    <rect
       style="fill:none;stroke:#000000;stroke-width:8.43171215;stroke-linejoin:miter;stroke-miterlimit:4;stroke-opacity:1;stroke-dasharray:none;stroke-dashoffset:0"
       id="rect3026-4-0-4"
       width="241.72046"
       height="117.22787"
       x="241.99692"
       y="831.80707" />
    <path
       sodipodi:type="arc"
       style="fill:none;stroke:#000000;stroke-width:4.18464565;stroke-linejoin:miter;stroke-miterlimit:4;stroke-opacity:1;stroke-dasharray:none;stroke-dashoffset:0"
       id="path3024-8"
       sodipodi:cx="377.14285"
       sodipodi:cy="73.790756"
       sodipodi:rx="91.428574"
       sodipodi:ry="38.57143"
       d="m 468.57143,73.790756 a 91.428574,38.57143 0 0 1 -91.42858,38.571434 91.428574,38.57143 0 0 1 -91.42857,-38.571434 91.428574,38.57143 0 0 1 91.42857,-38.57143 91.428574,38.57143 0 0 1 91.42858,38.57143 z"
       transform="matrix(1.0492513,0,0,2.5254237,-210.00334,482.38007)" />
    <path
       style="fill:none;stroke:#000000;stroke-width:1.54644644;stroke-linecap:butt;stroke-linejoin:miter;stroke-miterlimit:4;stroke-opacity:1;stroke-dasharray:none;marker-start:none;marker-end:url(#Arrow1Lend)"
       d="m 155.5244,253.92467 c 26.34214,15.11459 26.34214,15.11459 26.34214,15.11459"
       id="path3164"
       inkscape:connector-curvature="0" />
    <path
       style="fill:none;stroke:#000000;stroke-width:2.06192851;stroke-linecap:butt;stroke-linejoin:miter;stroke-miterlimit:4;stroke-dasharray:none;stroke-opacity:1;marker-end:url(#Arrow1Lend-5)"
       d="m 608.11183,636.19574 c 66.55113,113.01012 -121.2183,253.3881 -121.2183,253.3881"
       id="path3178"
       inkscape:connector-curvature="0"
       sodipodi:nodetypes="cc" />
    <path
       style="fill:none;stroke:#000000;stroke-width:2.06192851;stroke-linecap:butt;stroke-linejoin:miter;stroke-miterlimit:4;stroke-opacity:1;stroke-dasharray:none;marker-end:url(#Arrow1Lend-5)"
       d="m 238.396,900.30263 c -74.75129,0 -56.56854,-130.98877 -56.56854,-130.98877"
       id="path3180"
       inkscape:connector-curvature="0" />
    <path
       sodipodi:type="arc"
       style="fill:none;stroke:#000000;stroke-width:4.18464565;stroke-linejoin:miter;stroke-miterlimit:4;stroke-opacity:1;stroke-dasharray:none;stroke-dashoffset:0"
       id="path3186"
       sodipodi:cx="170.71577"
       sodipodi:cy="449.30112"
       sodipodi:rx="7.0710678"
       sodipodi:ry="7.0710678"
       d="m 177.78684,449.30112 a 7.0710678,7.0710678 0 0 1 -7.07107,7.07106 7.0710678,7.0710678 0 0 1 -7.07106,-7.07106 7.0710678,7.0710678 0 0 1 7.07106,-7.07107 7.0710678,7.0710678 0 0 1 7.07107,7.07107 z"
       transform="matrix(1,0,0,1.0628874,0,-55.022764)" />
    <path
       sodipodi:type="arc"
       style="fill:none;stroke:#000000;stroke-width:4.18464565;stroke-linejoin:miter;stroke-miterlimit:4;stroke-opacity:1;stroke-dasharray:none;stroke-dashoffset:0"
       id="path3188"
       sodipodi:cx="545.48236"
       sodipodi:cy="456.37219"
       sodipodi:rx="10.101525"
       sodipodi:ry="8.0812206"
       d="m 555.58389,456.37219 a 10.101525,8.0812206 0 0 1 -10.10153,8.08122 10.101525,8.0812206 0 0 1 -10.10152,-8.08122 10.101525,8.0812206 0 0 1 10.10152,-8.08122 10.101525,8.0812206 0 0 1 10.10153,8.08122 z"
       transform="matrix(1,0,0,1.0628874,0,-55.022764)" />
    <path
       style="fill:none;stroke:#000000;stroke-width:2.65353656;stroke-linecap:butt;stroke-linejoin:miter;stroke-miterlimit:4;stroke-opacity:1;stroke-dasharray:none;marker-end:url(#Arrow1Mend)"
       d="M 456.72357,63.368289 C 703.6054,62.208577 633.06773,135.27039 633.06773,135.27039"
       id="path3190"
       inkscape:connector-curvature="0" />
    <path
       style="fill:none;stroke:#000000;stroke-width:2.65353656;stroke-linecap:butt;stroke-linejoin:miter;stroke-miterlimit:4;stroke-opacity:1;stroke-dasharray:none;marker-end:url(#Arrow1Mend)"
       d="M 275.38022,59.917044 C 9.7580608,58.683173 85.650108,136.41704 85.650108,136.41704"
       id="path3190-5"
       inkscape:connector-curvature="0" />
    <path
       style="fill:none;stroke:#000000;stroke-width:1.54644644;stroke-linecap:butt;stroke-linejoin:miter;stroke-miterlimit:4;stroke-opacity:1;stroke-dasharray:none;marker-start:none;marker-end:url(#Arrow1Lend)"
       d="m 561.23307,253.72926 c -30.31789,15.04565 -30.31789,15.04565 -30.31789,15.04565"
       id="path3164-7"
       inkscape:connector-curvature="0" />
    <path
       style="fill:none;stroke:#000000;stroke-width:2.06192851;stroke-linecap:butt;stroke-linejoin:miter;stroke-miterlimit:4;stroke-dasharray:none;stroke-opacity:1;marker-end:url(#Arrow1Lend-5)"
       d="m 281.18812,308.44847 31.70922,38.98558"
       id="path6492"
       inkscape:connector-type="polyline"
       inkscape:connector-curvature="0"
       inkscape:connection-start="#rect3026"
       inkscape:connection-start-point="d4"
       inkscape:connection-end="#rect3026-4"
       inkscape:connection-end-point="d4" />
    <path
       style="fill:none;stroke:#000000;stroke-width:2.06200004;stroke-linecap:butt;stroke-linejoin:miter;stroke-miterlimit:4;stroke-dasharray:none;stroke-opacity:1;marker-end:url(#Arrow1Lend-5)"
       d="m 412.10607,464.66192 47.78786,54.35248"
       id="path6872"
       inkscape:connector-type="polyline"
       inkscape:connector-curvature="0"
       inkscape:connection-start="#rect3026-4"
       inkscape:connection-start-point="d4"
       inkscape:connection-end="#rect3026-4-0"
       inkscape:connection-end-point="d4" />
    <path
       style="fill:none;stroke:#000000;stroke-width:2.06200004;stroke-linecap:butt;stroke-linejoin:miter;stroke-miterlimit:4;stroke-dasharray:none;stroke-opacity:1;marker-end:url(#Arrow1Lend-5)"
       d="m 487.05519,636.18059 -16.7156,49.39064"
       id="path6874"
       inkscape:connector-type="polyline"
       inkscape:connector-curvature="0" />
    <path
       style="fill:none;stroke:#000000;stroke-width:2.06192851;stroke-linecap:butt;stroke-linejoin:miter;stroke-miterlimit:4;stroke-dasharray:none;stroke-opacity:1;marker-end:url(#Arrow1Lend-5)"
       d="m 425.90823,788.88421 -26.65371,42.92286"
       id="path6876"
       inkscape:connector-type="polyline"
       inkscape:connector-curvature="0"
       inkscape:connection-start="#path3024-9"
       inkscape:connection-start-point="d4"
       inkscape:connection-end="#rect3026-4-0-4"
       inkscape:connection-end-point="d4" />
    <path
       style="fill:none;stroke:#000000;stroke-width:2.062;stroke-linecap:butt;stroke-linejoin:miter;stroke-miterlimit:4;stroke-dasharray:none;stroke-opacity:1;marker-end:url(#Arrow1Lend-5)"
       d="m 277.84706,695.60907 76.98693,26.00416"
       id="path6878"
       inkscape:connector-type="polyline"
       inkscape:connector-curvature="0"
       inkscape:connection-start-point="d4"
       inkscape:connection-end-point="d4" />
    <path
       style="fill:none;stroke:#000000;stroke-width:2.06192851;stroke-linecap:butt;stroke-linejoin:miter;stroke-miterlimit:4;stroke-dasharray:none;stroke-opacity:1;marker-end:url(#Arrow1Lend-5)"
       d="m 239.43388,588.03094 82.121,-123.36902"
       id="path6880"
       inkscape:connector-type="polyline"
       inkscape:connector-curvature="0"
       inkscape:connection-start="#path3024-8"
       inkscape:connection-start-point="d4"
       inkscape:connection-end="#rect3026-4"
       inkscape:connection-end-point="d4" />
    <text
       xml:space="preserve"
       style="font-style:normal;font-weight:normal;font-size:22px;line-height:125%;font-family:Sans;letter-spacing:0px;word-spacing:0px;fill:#000000;fill-opacity:1;stroke:none"
       x="377.54492"
       y="371.99872"
       id="text8200"
       sodipodi:linespacing="125%"
       transform="scale(0.96996569,1.0309643)"><tspan
         sodipodi:role="line"
         x="377.54492"
         y="371.99872"
         id="tspan8206"
         style="font-size:22px;text-align:center;text-anchor:middle">Processus de</tspan><tspan
         sodipodi:role="line"
         x="377.54492"
         y="399.49872"
         style="font-size:22px;text-align:center;text-anchor:middle"
         id="tspan3054">groupement</tspan><tspan
         sodipodi:role="line"
         x="377.54492"
         y="426.99872"
         style="font-size:22px;text-align:center;text-anchor:middle"
         id="tspan3056">auditif</tspan></text>
    <text
       xml:space="preserve"
       style="font-style:normal;font-weight:normal;font-size:22px;line-height:125%;font-family:Sans;letter-spacing:0px;word-spacing:0px;fill:#000000;fill-opacity:1;stroke:none"
       x="527.03149"
       y="542.3269"
       id="text8200-1"
       sodipodi:linespacing="125%"
       transform="scale(0.96996569,1.0309643)"><tspan
         sodipodi:role="line"
         x="527.03149"
         y="542.3269"
         style="font-size:22px;text-align:center;text-anchor:middle"
         id="tspan3113">Extraction/calcul</tspan><tspan
         sodipodi:role="line"
         x="530.53345"
         y="569.8269"
         style="font-size:22px;text-align:center;text-anchor:middle"
         id="tspan3412">des </tspan><tspan
         sodipodi:role="line"
         x="527.03149"
         y="597.3269"
         style="font-size:22px;text-align:center;text-anchor:middle"
         id="tspan3414">propriétées/attributs</tspan><tspan
         sodipodi:role="line"
         x="527.03149"
         y="624.8269"
         style="font-size:22px;text-align:center;text-anchor:middle"
         id="tspan3111" /></text>
    <text
       xml:space="preserve"
       style="font-style:normal;font-weight:normal;font-size:22px;line-height:125%;font-family:Sans;letter-spacing:0px;word-spacing:0px;fill:#000000;fill-opacity:1;stroke:none"
       x="470.52069"
       y="697.94562"
       id="text8200-7"
       sodipodi:linespacing="125%"
       transform="scale(0.96996569,1.0309643)"><tspan
         sodipodi:role="line"
         x="474.02264"
         y="697.94562"
         style="font-size:22px;text-align:center;text-anchor:middle"
         id="tspan8262">Strucutre de </tspan><tspan
         sodipodi:role="line"
         x="470.52069"
         y="725.44562"
         style="font-size:22px;text-align:center;text-anchor:middle"
         id="tspan3422">connaissances</tspan><tspan
         sodipodi:role="line"
         x="470.52069"
         y="752.94562"
         style="font-size:22px;text-align:center;text-anchor:middle"
         id="tspan3424">abstraites</tspan></text>
    <text
       xml:space="preserve"
       style="font-style:normal;font-weight:normal;font-size:22px;line-height:125%;font-family:Sans;letter-spacing:0px;word-spacing:0px;fill:#000000;fill-opacity:1;stroke:none"
       x="371.82462"
       y="844.7655"
       id="text8200-1-2"
       sodipodi:linespacing="125%"
       transform="scale(0.96996569,1.0309643)"><tspan
         sodipodi:role="line"
         x="375.32657"
         y="844.7655"
         style="font-size:22px;text-align:center;text-anchor:middle"
         id="tspan3141">Traitement des </tspan><tspan
         sodipodi:role="line"
         x="371.82462"
         y="872.2655"
         style="font-size:22px;text-align:center;text-anchor:middle"
         id="tspan3418">structures</tspan><tspan
         sodipodi:role="line"
         x="371.82462"
         y="899.7655"
         style="font-size:22px;text-align:center;text-anchor:middle"
         id="tspan3420">d'événements</tspan></text>
    <text
       xml:space="preserve"
       style="font-style:normal;font-weight:normal;font-size:22px;line-height:125%;font-family:Sans;letter-spacing:0px;word-spacing:0px;fill:#000000;fill-opacity:1;stroke:none"
       x="190.16158"
       y="624.48218"
       id="text8200-1-2-1"
       sodipodi:linespacing="125%"
       transform="scale(0.96996569,1.0309643)"><tspan
         sodipodi:role="line"
         x="190.16158"
         y="624.48218"
         style="font-size:22px;text-align:center;text-anchor:middle"
         id="tspan3134">Representation</tspan><tspan
         sodipodi:role="line"
         x="193.66353"
         y="651.98218"
         style="font-size:22px;text-align:center;text-anchor:middle"
         id="tspan3401">mentale de </tspan><tspan
         sodipodi:role="line"
         x="190.16158"
         y="679.48218"
         style="font-size:22px;text-align:center;text-anchor:middle"
         id="tspan3403">l'environnement</tspan><tspan
         sodipodi:role="line"
         x="190.16158"
         y="706.98218"
         style="font-size:22px;text-align:center;text-anchor:middle"
         id="tspan3405">sonore</tspan></text>
    <text
       xml:space="preserve"
       style="font-size:20.61928558px;font-style:normal;font-weight:normal;line-height:125%;letter-spacing:0px;word-spacing:0px;fill:#000000;fill-opacity:1;stroke:none;font-family:Sans"
       x="206.73279"
       y="493.56714"
       id="text8200-18"
       sodipodi:linespacing="125%"
       transform="scale(0.96996568,1.0309643)"><tspan
         sodipodi:role="line"
         x="206.73279"
         y="493.56714"
         style="text-align:center;text-anchor:middle"
         id="tspan8407">Attention</tspan><tspan
         sodipodi:role="line"
         x="206.73279"
         y="519.34125"
         style="text-align:center;text-anchor:middle"
         id="tspan3102">Process</tspan></text>
    <path
       style="fill:none;stroke:#000000;stroke-width:2.06192851;stroke-linecap:butt;stroke-linejoin:miter;stroke-miterlimit:4;stroke-dasharray:none;stroke-opacity:1;marker-end:url(#Arrow1Lend-5)"
       d="m 443.49454,307.87824 -34.03087,38.86685"
       id="path6492-6"
       inkscape:connector-type="polyline"
       inkscape:connector-curvature="0" />
    <text
       xml:space="preserve"
       style="font-style:normal;font-weight:normal;font-size:22px;line-height:125%;font-family:Sans;letter-spacing:0px;word-spacing:0px;fill:#000000;fill-opacity:1;stroke:none"
       x="339.33624"
       y="72.454521"
       id="text3143"
       sodipodi:linespacing="125%"><tspan
         sodipodi:role="line"
         id="tspan3145"
         x="339.33624"
         y="72.454521">Son</tspan></text>
    <text
       xml:space="preserve"
       style="font-size:22px;font-style:normal;font-weight:normal;line-height:125%;letter-spacing:0px;word-spacing:0px;fill:#000000;fill-opacity:1;stroke:none;font-family:Sans"
       x="187.90768"
       y="286.74026"
       id="text3147"
       sodipodi:linespacing="125%"><tspan
         sodipodi:role="line"
         id="tspan3149"
         x="187.90768"
         y="286.74026">Transduction</tspan></text>
    <rect
       style="fill:none;stroke:#000000;stroke-width:4.64151287;stroke-linejoin:miter;stroke-miterlimit:4;stroke-opacity:1;stroke-dasharray:none;stroke-dashoffset:0"
       id="rect3026-5"
       width="149.6754"
       height="57.369526"
       x="380.32944"
       y="250.91261" />
    <text
       xml:space="preserve"
       style="font-size:22px;font-style:normal;font-weight:normal;line-height:125%;letter-spacing:0px;word-spacing:0px;fill:#000000;fill-opacity:1;stroke:none;font-family:Sans"
       x="385.21768"
       y="286.57391"
       id="text3147-1"
       sodipodi:linespacing="125%"><tspan
         sodipodi:role="line"
         id="tspan3149-0"
         x="385.21768"
         y="286.57391">Transduction</tspan></text>
  </g>
</svg>
